HIERARCHY
ROOT hip
{
  OFFSET 0 0 0
  CHANNELS 6 Xposition Yposition Zposition Zrotation Yrotation Xrotation
  JOINT abdomen
  {
    OFFSET 0 20.6881 -0.73152
    CHANNELS 3 Zrotation Xrotation Yrotation
    JOINT chest
    {
      OFFSET 0 11.7043 -0.48768
      CHANNELS 3 Zrotation Xrotation Yrotation
      JOINT neck
      {
        OFFSET 0 22.1894 -2.19456
        CHANNELS 3 Zrotation Xrotation Yrotation
        JOINT head
        {
          OFFSET -0.24384 7.07133 1.2192
          CHANNELS 3 Zrotation Xrotation Yrotation
          JOINT leftEye
          {
            OFFSET 4.14528 8.04674 8.04672
            CHANNELS 3 Zrotation Xrotation Yrotation
            End Site
            {
              OFFSET 1 0 0
            }
          }
          JOINT rightEye
          {
            OFFSET -3.6576 8.04674 8.04672
            CHANNELS 3 Zrotation Xrotation Yrotation
            End Site
            {
              OFFSET 1 0 0
            }
          }
        }
      }
      JOINT rCollar
      {
        OFFSET -2.68224 19.2634 -4.8768
        CHANNELS 3 Zrotation Xrotation Yrotation
        JOINT rShldr
        {
          OFFSET -8.77824 -1.95073 1.46304
          CHANNELS 3 Zrotation Xrotation Yrotation
          JOINT rForeArm
          {
            OFFSET -28.1742 -1.7115 0.48768
            CHANNELS 3 Zrotation Xrotation Yrotation
            JOINT rHand
            {
              OFFSET -22.5879 0.773209 7.07136
              CHANNELS 3 Zrotation Xrotation Yrotation
              JOINT rThumb1
              {
                OFFSET -1.2192 -0.487915 3.41376
                CHANNELS 3 Zrotation Xrotation Yrotation
                JOINT rThumb2
                {
                  OFFSET -3.37035 -0.52449 3.41376
                  CHANNELS 3 Zrotation Xrotation Yrotation
                  End Site
                  {
                    OFFSET -1.78271 -1.18214 1.43049
                  }
                }
              }
              JOINT rIndex1
              {
                OFFSET -7.75947 0.938293 5.60832
                CHANNELS 3 Zrotation Xrotation Yrotation
                JOINT rIndex2
                {
                  OFFSET -2.54057 -0.884171 1.56538
                  CHANNELS 3 Zrotation Xrotation Yrotation
                  End Site
                  {
                    OFFSET -1.62519 -0.234802 1.16502
                  }
                }
              }
              JOINT rMid1
              {
                OFFSET -8.24714 1.18213 3.41376
                CHANNELS 3 Zrotation Xrotation Yrotation
                JOINT rMid2
                {
                  OFFSET -3.10165 -0.590103 1.0647
                  CHANNELS 3 Zrotation Xrotation Yrotation
                  End Site
                  {
                    OFFSET -2.48547 -0.328903 0.83742
                  }
                }
              }
              JOINT rRing1
              {
                OFFSET -8.82822 0.546677 1.51678
                CHANNELS 3 Zrotation Xrotation Yrotation
                JOINT rRing2
                {
                  OFFSET -2.60934 -0.819778 -0.0198488
                  CHANNELS 3 Zrotation Xrotation Yrotation
                  End Site
                  {
                    OFFSET -2.33842 -0.294052 0.168128
                  }
                }
              }
              JOINT rPinky1
              {
                OFFSET -8.27202 -0.0477905 -0.4584
                CHANNELS 3 Zrotation Xrotation Yrotation
                JOINT rPinky2
                {
                  OFFSET -1.82734 -0.647385 -0.700984
                  CHANNELS 3 Zrotation Xrotation Yrotation
                  End Site
                  {
                    OFFSET -1.69225 -0.51767 -0.607171
                  }
                }
              }
            }
          }
        }
      }
      JOINT lCollar
      {
        OFFSET 2.68224 19.2634 -4.8768
        CHANNELS 3 Zrotation Xrotation Yrotation
        JOINT lShldr
        {
          OFFSET 8.77824 -1.95073 1.46304
          CHANNELS 3 Zrotation Xrotation Yrotation
          JOINT lForeArm
          {
            OFFSET 28.1742 -1.7115 0.48768
            CHANNELS 3 Zrotation Xrotation Yrotation
            JOINT lHand
            {
              OFFSET 22.5879 0.773209 7.07136
              CHANNELS 3 Zrotation Xrotation Yrotation
              JOINT lThumb1
              {
                OFFSET 1.2192 -0.487915 3.41376
                CHANNELS 3 Zrotation Xrotation Yrotation
                JOINT lThumb2
                {
                  OFFSET 3.37035 -0.52449 3.41376
                  CHANNELS 3 Zrotation Xrotation Yrotation
                  End Site
                  {
                    OFFSET 1.78271 -1.18214 1.43049
                  }
                }
              }
              JOINT lIndex1
              {
                OFFSET 7.75947 0.938293 5.60832
                CHANNELS 3 Zrotation Xrotation Yrotation
                JOINT lIndex2
                {
                  OFFSET 2.54057 -0.884171 1.56538
                  CHANNELS 3 Zrotation Xrotation Yrotation
                  End Site
                  {
                    OFFSET 1.62519 -0.234802 1.16502
                  }
                }
              }
              JOINT lMid1
              {
                OFFSET 8.24714 1.18213 3.41376
                CHANNELS 3 Zrotation Xrotation Yrotation
                JOINT lMid2
                {
                  OFFSET 3.10165 -0.590103 1.0647
                  CHANNELS 3 Zrotation Xrotation Yrotation
                  End Site
                  {
                    OFFSET 2.48547 -0.328903 0.83742
                  }
                }
              }
              JOINT lRing1
              {
                OFFSET 8.82822 0.546677 1.51678
                CHANNELS 3 Zrotation Xrotation Yrotation
                JOINT lRing2
                {
                  OFFSET 2.60934 -0.819778 -0.0198488
                  CHANNELS 3 Zrotation Xrotation Yrotation
                  End Site
                  {
                    OFFSET 2.33842 -0.294052 0.168128
                  }
                }
              }
              JOINT lPinky1
              {
                OFFSET 8.27202 -0.0477905 -0.4584
                CHANNELS 3 Zrotation Xrotation Yrotation
                JOINT lPinky2
                {
                  OFFSET 1.82734 -0.647385 -0.700984
                  CHANNELS 3 Zrotation Xrotation Yrotation
                  End Site
                  {
                    OFFSET 1.69225 -0.51767 -0.607171
                  }
                }
              }
            }
          }
        }
      }
    }
  }
  JOINT rButtock
  {
    OFFSET -8.77824 4.35084 1.2192
    CHANNELS 3 Zrotation Xrotation Yrotation
    JOINT rThigh
    {
      OFFSET 0 -1.70687 -2.19456
      CHANNELS 3 Zrotation Xrotation Yrotation
      JOINT rShin
      {
        OFFSET 0 -36.8199 0.73152
        CHANNELS 3 Zrotation Xrotation Yrotation
        JOINT rFoot
        {
          OFFSET 0.73152 -45.1104 -5.12064
          CHANNELS 3 Zrotation Xrotation Yrotation
          End Site
          {
            OFFSET -1.1221 -3.69964 12.103
          }
        }
      }
    }
  }
  JOINT lButtock
  {
    OFFSET 8.77824 4.35084 1.2192
    CHANNELS 3 Zrotation Xrotation Yrotation
    JOINT lThigh
    {
      OFFSET 0 -1.70687 -2.19456
      CHANNELS 3 Zrotation Xrotation Yrotation
      JOINT lShin
      {
        OFFSET 0 -36.8199 0.73152
        CHANNELS 3 Zrotation Xrotation Yrotation
        JOINT lFoot
        {
          OFFSET -0.73152 -45.1104 -5.12064
          CHANNELS 3 Zrotation Xrotation Yrotation
          End Site
          {
            OFFSET 1.1221 -3.69964 12.103
          }
        }
      }
    }
  }
}
MOTION
Frames:	5
Frame Time:	0.00833333
-7.89223 85.5196 -23.4744 24.2081 27.854 75.3115 17.5188 47.298 21.0722 3.76834 -3.77848 7.5064 12.8265 5.23508 -16.3295 -28.2603 -33.9887 -48.031 -0.0 0.0 0.0 -0.0 0.0 0.0 -1.81307e-13 6.70929e-14 4.03885e-13 -16.0711 -30.4938 24.393 -11.5123 -5.11157 20.6696 -0.0084383 2.63443 0.370503 1.94037e-09 -7.94454e-10 3.44886e-09 3.36786e-09 -1.36766e-09 5.95441e-09 1.94037e-09 -7.94452e-10 3.44886e-09 7.73091 5.47488 0.417314 1.94037e-09 -7.94441e-10 3.44886e-09 2.90554 0.965183 0.102902 1.94037e-09 -7.94454e-10 3.44887e-09 10.2786 0.731801 0.0259123 1.94036e-09 -7.94442e-10 3.44888e-09 2.22167 -0.733487 -0.20892 -1.81491e-13 6.70353e-14 4.03644e-13 8.07069 74.1443 -91.0387 25.026 -21.1519 -53.0416 0.856799 -25.3214 3.81284 7.82641e-10 -5.8035e-10 -5.03326e-09 1.46338e-09 -1.25012e-09 -8.69519e-09 7.82636e-10 -5.80355e-10 -5.03325e-09 -7.73091 5.47488 -0.417314 7.82643e-10 -5.80352e-10 -5.03326e-09 -2.90554 0.965183 -0.102902 7.82636e-10 -5.80352e-10 -5.03326e-09 -10.2786 0.731801 -0.0259123 7.82655e-10 -5.80355e-10 -5.03327e-09 -2.22167 -0.733487 0.20892 -2.03217e-16 0.0 -3.88251e-19 -105.094 -72.3413 -102.04 -0.212072 32.2136 0.530048 -0.858571 1.63682 -10.3987 2.03217e-16 0.0 3.88251e-19 13.5164 -36.8829 -3.68228 0.112988 31.425 -0.983817 0.73535 13.376 -2.75804
-7.91414 85.6271 -23.4351 24.3423 27.6917 75.5159 17.5465 47.3871 21.5093 3.37109 -3.93444 7.59777 13.4244 5.2042 -16.4604 -28.7804 -34.0834 -48.7156 -0.0 0.0 0.0 -0.0 0.0 0.0 -2.06619e-13 4.77347e-14 4.24703e-13 -16.3963 -30.1261 23.5884 -11.49 -5.09734 20.6271 -0.00964588 2.80303 0.394258 1.69137e-09 -5.99806e-10 3.59085e-09 2.93815e-09 -1.0309e-09 6.19934e-09 1.69137e-09 -5.99802e-10 3.59085e-09 7.73091 5.47488 0.417314 1.69137e-09 -5.99791e-10 3.59085e-09 2.90554 0.965183 0.102902 1.69137e-09 -5.99806e-10 3.59086e-09 10.2786 0.731801 0.0259123 1.69136e-09 -5.99792e-10 3.59087e-09 2.22167 -0.733487 -0.20892 -2.06816e-13 4.768e-14 4.24455e-13 10.5067 74.088 -93.0832 25.0176 -21.1337 -53.0116 0.87238 -25.5313 3.8491 5.33514e-10 -1.10033e-10 -5.6968e-09 1.0478e-09 -4.73572e-10 -9.84546e-09 5.33508e-10 -1.10038e-10 -5.6968e-09 -7.73091 5.47488 -0.417314 5.33515e-10 -1.10035e-10 -5.6968e-09 -2.90554 0.965183 -0.102902 5.33509e-10 -1.10035e-10 -5.6968e-09 -10.2786 0.731801 -0.0259123 5.3353e-10 -1.10039e-10 -5.69681e-09 -2.22167 -0.733487 0.20892 -2.03217e-16 0.0 -3.88251e-19 -104.818 -72.3018 -101.64 -0.208633 31.9231 0.521453 -0.848826 1.61039 -10.2951 2.03217e-16 0.0 3.88251e-19 13.6898 -36.319 -3.43179 0.111974 31.3052 -0.981169 0.679282 13.3465 -2.45684
-7.92702 85.7239 -23.3933 24.444 27.5332 75.6511 17.5473 47.4879 21.9386 2.98146 -4.07148 7.68366 14.0028 5.24327 -16.5938 -29.2364 -34.267 -49.3855 -0.0 0.0 0.0 -0.0 0.0 0.0 -2.28937e-13 7.03607e-14 3.93525e-13 -16.6909 -29.6789 22.8265 -11.4707 -5.08708 20.5915 -0.0100411 2.83375 0.398596 1.30363e-09 2.7632e-10 2.11425e-09 2.26258e-09 4.84773e-10 3.64598e-09 1.30364e-09 2.76324e-10 2.11425e-09 7.73091 5.47488 0.417314 1.30363e-09 2.76333e-10 2.11425e-09 2.90554 0.965183 0.102902 1.30364e-09 2.7632e-10 2.11425e-09 10.2786 0.731801 0.0259123 1.30363e-09 2.76332e-10 2.11426e-09 2.22167 -0.733487 -0.20892 -2.29109e-13 7.03274e-14 3.93313e-13 12.8148 73.9905 -94.9939 25.0087 -21.1145 -52.9799 0.887983 -25.7396 3.88518 8.15349e-10 -1.25847e-09 -4.60503e-09 1.50769e-09 -2.39528e-09 -7.94869e-09 8.15344e-10 -1.25848e-09 -4.60502e-09 -7.73091 5.47488 -0.417314 8.1535e-10 -1.25847e-09 -4.60503e-09 -2.90554 0.965183 -0.102902 8.15344e-10 -1.25847e-09 -4.60503e-09 -10.2786 0.731801 -0.0259123 8.15364e-10 -1.25848e-09 -4.60503e-09 -2.22167 -0.733487 0.20892 -2.03217e-16 0.0 -3.88251e-19 -104.426 -72.297 -101.103 -0.20506 31.605 0.510964 -0.825308 1.69257 -10.269 2.03217e-16 0.0 3.88251e-19 13.8449 -35.7536 -3.16624 0.110865 31.1878 -0.979386 0.649205 13.3607 -2.2989
-7.94037 85.8171 -23.3394 24.5261 27.4514 75.7414 17.5265 47.5967 22.3611 2.59987 -4.19426 7.76476 14.567 5.31994 -16.7267 -29.6543 -34.501 -50.0433 -0.0 0.0 0.0 -0.0 0.0 0.0 -2.42747e-13 1.143e-13 3.2178e-13 -16.9352 -29.1836 22.1121 -11.4563 -5.08148 20.5658 -0.00971358 2.76295 0.388632 7.65707e-10 1.58524e-09 -4.26252e-10 1.32333e-09 2.74901e-09 -7.4657e-10 7.65713e-10 1.58525e-09 -4.2626e-10 7.73091 5.47488 0.417314 7.65706e-10 1.58525e-09 -4.26254e-10 2.90554 0.965183 0.102902 7.65714e-10 1.58524e-09 -4.26252e-10 10.2786 0.731801 0.0259123 7.65704e-10 1.58525e-09 -4.26243e-10 2.22167 -0.733487 -0.20892 -2.42872e-13 1.14301e-13 3.21634e-13 15.0022 73.8608 -96.7835 24.9997 -21.0951 -52.9479 0.903804 -25.9486 3.92152 1.36872e-09 -3.32082e-09 -2.34687e-09 2.40916e-09 -5.83166e-09 -4.02853e-09 1.36872e-09 -3.32082e-09 -2.34685e-09 -7.73091 5.47488 -0.417314 1.36873e-09 -3.32082e-09 -2.34687e-09 -2.90554 0.965183 -0.102902 1.36872e-09 -3.32082e-09 -2.34687e-09 -10.2786 0.731801 -0.0259123 1.36874e-09 -3.32082e-09 -2.34687e-09 -2.22167 -0.733487 0.20892 -2.03217e-16 0.0 -3.88251e-19 -103.937 -72.3188 -100.455 -0.201424 31.2662 0.499261 -0.794022 1.8392 -10.2946 2.03217e-16 0.0 3.88251e-19 13.9838 -35.1916 -2.89931 0.109723 31.075 -0.978214 0.637595 13.3947 -2.24588
-7.9535 85.9097 -23.285 24.5996 27.3787 75.839 17.4891 47.7039 22.7694 2.23217 -4.30821 7.84062 15.118 5.38591 -16.8479 -30.0647 -34.7158 -50.6699 -0.0 0.0 0.0 -0.0 0.0 0.0 -2.44086e-13 1.61519e-13 2.36469e-13 -17.0658 -28.7447 21.4736 -11.4464 -5.07859 20.5486 -0.00941606 2.71952 0.382514 2.39855e-10 2.87191e-09 -3.04271e-09 4.04343e-10 4.97462e-09 -5.2701e-09 2.39861e-10 2.87191e-09 -3.04272e-09 7.73091 5.47488 0.417314 2.39854e-10 2.87191e-09 -3.04271e-09 2.90554 0.965183 0.102902 2.39863e-10 2.87191e-09 -3.04271e-09 10.2786 0.731801 0.0259123 2.39854e-10 2.87191e-09 -3.0427e-09 2.22167 -0.733487 -0.20892 -2.44159e-13 1.61555e-13 2.36387e-13 17.0433 73.7094 -98.4372 24.9901 -21.0746 -52.914 0.919203 -26.1495 3.95659 1.95886e-09 -5.47417e-09 1.28004e-10 3.36924e-09 -9.41328e-09 2.66864e-10 1.95886e-09 -5.47418e-09 1.28033e-10 -7.73091 5.47488 -0.417314 1.95886e-09 -5.47417e-09 1.28011e-10 -2.90554 0.965183 -0.102902 1.95886e-09 -5.47417e-09 1.28011e-10 -10.2786 0.731801 -0.0259123 1.95887e-09 -5.47417e-09 1.28011e-10 -2.22167 -0.733487 0.20892 -2.03217e-16 0.0 -3.88251e-19 -103.4 -72.3558 -99.7474 -0.197914 30.9269 0.487495 -0.761324 2.00405 -10.3459 2.03217e-16 0.0 3.88251e-19 14.1035 -34.6389 -2.6498 0.108486 30.9604 -0.977384 0.638731 13.4519 -2.26194
